# Blender 5.0.1
# www.blender.org
o Cube_002
v 0.042718 -0.042715 0.005606
v 0.000023 -0.054239 0.005533
v 0.000063 -0.000011 0.005865
v 0.054278 -0.000020 0.005541
v -0.042626 -0.042493 0.005563
v -0.055126 0.000006 0.005680
v 0.000047 -0.000008 -0.013679
v -0.063964 0.000000 -0.013679
v -0.050335 -0.050330 -0.013679
v -0.000002 -0.063941 -0.013679
v 0.050314 0.050319 -0.013679
v 0.063925 0.000000 -0.013679
v -0.000002 0.063948 -0.013679
v 0.050311 -0.050314 -0.013679
v -0.050338 0.050334 -0.013679
v -0.042645 0.042626 0.005570
v -0.000004 0.055016 0.005665
v 0.042527 0.042638 0.005571
v 0.053164 -0.053167 0.011304
v 0.062577 -0.062236 0.008885
v 0.002096 -0.080169 0.009309
v 0.000004 -0.067516 0.011233
v -0.052983 0.052980 0.011263
v -0.058715 0.059049 0.009069
v 0.002101 0.079654 0.010018
v 0.000003 0.068376 0.011369
v -0.052932 -0.052937 0.011254
v -0.061799 -0.065580 0.010234
v -0.079294 -0.001763 0.009983
v -0.068501 -0.000005 0.011386
v 0.069470 0.069459 -0.013679
v 0.086540 -0.000010 -0.013679
v 0.081626 -0.001756 0.009638
v 0.062630 0.058705 0.008915
v -0.067575 -0.067592 -0.013679
v -0.083303 -0.000010 -0.013679
v -0.069649 0.069647 -0.013679
v 0.000010 0.082669 -0.013679
v 0.066245 -0.066248 -0.013679
v 0.000010 -0.086799 -0.013679
v 0.067558 -0.000005 0.011243
v 0.052968 0.052963 0.011264
vn 0.0030 -0.0031 1.0000
vn 0.0048 0.0010 1.0000
vn 0.0009 -0.0029 1.0000
vn 0.0025 -0.0009 1.0000
vn -0.0022 -0.0049 1.0000
vn -0.0001 -0.0031 1.0000
vn -0.0000 -0.0000 -1.0000
vn -0.0033 0.0036 1.0000
vn 0.0028 0.0006 1.0000
vn 0.0046 0.0023 1.0000
vn 0.0512 -0.1696 0.9842
vn 0.0513 -0.1697 0.9842
vn -0.0680 0.1861 0.9802
vn -0.0679 0.1861 0.9802
vn -0.1021 -0.0279 0.9944
vn 0.9173 0.2563 0.3047
vn 0.9173 0.2563 0.3046
vn -0.9506 -0.2400 0.1968
vn -0.9506 -0.2400 0.1969
vn -0.2375 0.9122 0.3340
vn -0.2375 0.9122 0.3339
vn 0.2837 -0.9315 0.2275
vn -0.9037 0.2396 0.3547
vn -0.9037 0.2396 0.3548
vn -0.2417 -0.9463 0.2149
vn -0.2417 -0.9463 0.2148
vn 0.9374 -0.2922 0.1898
vn 0.9374 -0.2922 0.1897
vn 0.2449 0.9222 0.2994
vn 0.2448 0.9222 0.2995
vn -0.1945 0.0706 0.9784
vn -0.1946 0.0706 0.9783
vn -0.0195 -0.1104 0.9937
vn 0.1467 -0.0492 0.9880
vn 0.0646 0.1691 0.9835
vn 0.0647 0.1691 0.9835
vn 0.1556 0.0522 0.9864
vn -0.3917 -0.1084 0.9137
vn -0.3916 -0.1084 0.9137
vn -0.3918 -0.1085 0.9136
vn 0.3904 0.1125 0.9137
vn 0.3900 0.1122 0.9140
vn 0.3905 0.1126 0.9137
vn 0.3903 0.1124 0.9138
vn 0.1117 -0.3907 0.9137
vn 0.1115 -0.3904 0.9139
vn 0.1117 -0.3908 0.9137
vn 0.1116 -0.3905 0.9138
vn -0.1070 0.3916 0.9139
vn -0.1072 0.3919 0.9138
vn -0.1072 0.3919 0.9137
vn -0.1072 0.3920 0.9137
vn 0.3901 -0.1121 0.9139
vn 0.3906 -0.1121 0.9137
vn 0.3904 -0.1121 0.9138
vn 0.3905 -0.1121 0.9138
vn 0.1083 0.3919 0.9136
vn 0.1083 0.3917 0.9137
vn 0.1083 0.3916 0.9137
vn 0.1083 0.3916 0.9138
vn -0.3922 0.1073 0.9136
vn -0.3915 0.1073 0.9139
vn -0.3920 0.1073 0.9137
vn -0.3919 0.1073 0.9137
vn -0.1117 -0.3903 0.9139
vn -0.1117 -0.3906 0.9137
vn -0.1117 -0.3902 0.9139
vn -0.1117 -0.3905 0.9138
vt 0.171946 0.281065
vt 0.356937 0.353439
vt 0.179807 0.430025
vt 0.281524 0.178057
vt 0.285023 0.537104
vt 0.434061 0.531980
vt 0.989454 0.297481
vt 0.817643 0.469469
vt 0.770566 0.297798
vt 0.989454 0.516028
vt 0.815292 0.718417
vt 0.986995 0.671636
vt 0.986995 0.890128
vt 0.768356 0.890070
vt 0.922661 0.000186
vt 0.876272 0.172053
vt 0.704511 0.219041
vt 0.704511 0.000557
vt 0.064140 0.705310
vt 0.282713 0.705310
vt 0.282679 0.923893
vt 0.110815 0.877228
vt 0.543484 0.428821
vt 0.534010 0.278524
vt 0.431545 0.168197
vt 0.125460 0.261881
vt 0.082737 0.456213
vt 0.087027 0.245292
vt 0.129964 0.451882
vt 0.590712 0.448308
vt 0.618516 0.239356
vt 0.617021 0.458016
vt 0.582320 0.257659
vt 0.266537 0.583182
vt 0.459057 0.621946
vt 0.240699 0.623745
vt 0.454651 0.581354
vt 0.494712 0.004564
vt 0.240264 0.082682
vt 0.247384 0.000186
vt 0.456071 0.084144
vt 0.219312 0.704938
vt 0.463307 0.704938
vt 0.704139 0.491519
vt 0.701381 0.247371
vt 0.012787 0.219108
vt 0.000186 0.461067
vt 0.534324 0.670165
vt 0.469052 0.617093
vt 0.030056 0.539468
vt 0.087085 0.473143
vt 0.166314 0.028735
vt 0.226432 0.088840
vt 0.674569 0.173351
vt 0.613738 0.230944
vt 0.259923 0.129235
vt 0.451260 0.121175
vt 0.704511 0.889710
vt 0.749895 0.653114
vt 0.044992 0.943233
vt 0.000187 0.705679
vt 0.986560 0.594382
vt 0.282494 0.989861
vt 0.999814 0.000369
vt 0.930805 0.226280
vt 0.758941 0.528531
vt 0.704511 0.298308
vt 0.705130 0.297107
vt 0.989301 0.594009
s 1
f 1/1/1 3/2/2 2/3/3
f 1/1/1 4/4/4 3/2/2
f 5/5/5 3/2/2 6/6/6
f 5/5/5 2/3/3 3/2/2
f 7/7/7 9/8/7 8/9/7
f 7/7/7 10/10/7 9/8/7
f 11/11/7 12/12/7 7/13/7
f 11/11/7 7/13/7 13/14/7
f 12/15/7 14/16/7 10/17/7
f 12/15/7 10/17/7 7/18/7
f 13/19/7 7/20/7 8/21/7
f 13/19/7 8/21/7 15/22/7
f 16/23/8 3/2/2 17/24/9
f 16/23/8 6/6/6 3/2/2
f 18/25/10 3/2/2 4/4/4
f 18/25/10 17/24/9 3/2/2
f 19/26/11 21/27/11 20/28/12
f 19/26/11 22/29/11 21/27/11
f 23/30/13 25/31/14 24/32/13
f 23/30/13 26/33/14 25/31/14
f 27/34/15 29/35/15 28/36/15
f 27/34/15 30/37/15 29/35/15
f 31/38/16 33/39/16 32/40/17
f 31/38/16 34/41/16 33/39/16
f 35/42/18 29/35/18 36/43/18
f 35/42/18 28/36/19 29/35/18
f 37/44/20 25/31/21 38/45/21
f 37/44/20 24/32/20 25/31/21
f 39/46/22 21/27/22 40/47/22
f 39/46/22 20/28/22 21/27/22
f 36/48/23 24/32/24 37/44/24
f 36/48/23 29/49/23 24/32/24
f 40/50/25 28/36/26 35/42/26
f 40/50/25 21/51/25 28/36/26
f 32/52/27 20/28/27 39/46/27
f 32/52/27 33/53/28 20/28/27
f 38/54/29 34/41/29 31/38/30
f 38/54/29 25/55/29 34/41/29
f 30/37/31 24/32/31 29/49/31
f 30/37/31 23/30/32 24/32/31
f 22/29/33 28/36/33 21/51/33
f 22/29/33 27/34/33 28/36/33
f 41/56/34 20/28/34 33/53/34
f 41/56/34 19/26/34 20/28/34
f 26/33/35 34/41/36 25/55/36
f 26/33/35 42/57/36 34/41/36
f 42/57/37 33/39/37 34/41/37
f 42/57/37 41/56/37 33/39/37
f 18/25/38 41/56/39 42/57/38
f 18/25/38 4/4/40 41/56/39
f 5/5/41 30/37/42 27/34/43
f 5/5/41 6/6/44 30/37/42
f 16/23/45 26/33/46 23/30/47
f 16/23/45 17/24/48 26/33/46
f 1/1/49 22/29/50 19/26/51
f 1/1/49 2/3/52 22/29/50
f 6/6/53 23/30/54 30/37/55
f 6/6/53 16/23/56 23/30/54
f 2/3/57 27/34/58 22/29/59
f 2/3/57 5/5/60 27/34/58
f 4/4/61 19/26/62 41/56/63
f 4/4/61 1/1/64 19/26/62
f 17/24/65 42/57/66 26/33/67
f 17/24/65 18/25/68 42/57/66
f 11/11/7 13/14/7 38/58/7
f 11/11/7 38/58/7 31/59/7
f 13/19/7 37/60/7 38/61/7
f 12/12/7 11/11/7 31/59/7
f 13/19/7 15/22/7 37/60/7
f 12/12/7 31/59/7 32/62/7
f 15/22/7 36/63/7 37/60/7
f 14/16/7 12/15/7 32/64/7
f 15/22/7 8/21/7 36/63/7
f 14/16/7 32/64/7 39/65/7
f 8/9/7 35/66/7 36/67/7
f 10/17/7 14/16/7 39/65/7
f 8/9/7 9/8/7 35/66/7
f 10/17/7 39/65/7 40/68/7
f 9/8/7 40/69/7 35/66/7
f 9/8/7 10/10/7 40/69/7
